<svg width="16" height="23" viewBox="0 0 16 23" fill="none" xmlns="http://www.w3.org/2000/svg">
<path d="M5.75684 9.46094H8.0127C9.08691 9.46094 9.88281 9.19238 10.4004 8.65527C10.918 8.11816 11.1768 7.40527 11.1768 6.5166C11.1768 5.65723 10.918 4.98828 10.4004 4.50977C9.89258 4.03125 9.18945 3.79199 8.29102 3.79199C7.48047 3.79199 6.80176 4.0166 6.25488 4.46582C5.70801 4.90527 5.43457 5.48145 5.43457 6.19434H1.20117C1.20117 5.08105 1.49902 4.08496 2.09473 3.20605C2.7002 2.31738 3.54004 1.62402 4.61426 1.12598C5.69824 0.62793 6.88965 0.378906 8.18848 0.378906C10.4443 0.378906 12.2119 0.920898 13.4912 2.00488C14.7705 3.0791 15.4102 4.56348 15.4102 6.45801C15.4102 7.43457 15.1123 8.33301 14.5166 9.15332C13.9209 9.97363 13.1396 10.6035 12.1729 11.043C13.374 11.4727 14.2676 12.1172 14.8535 12.9766C15.4492 13.8359 15.7471 14.8516 15.7471 16.0234C15.7471 17.918 15.0537 19.4365 13.667 20.5791C12.29 21.7217 10.4639 22.293 8.18848 22.293C6.05957 22.293 4.31641 21.7314 2.95898 20.6084C1.61133 19.4854 0.9375 18.001 0.9375 16.1553H5.1709C5.1709 16.9561 5.46875 17.6104 6.06445 18.1182C6.66992 18.626 7.41211 18.8799 8.29102 18.8799C9.29688 18.8799 10.083 18.6162 10.6494 18.0889C11.2256 17.5518 11.5137 16.8438 11.5137 15.9648C11.5137 13.8359 10.3418 12.7715 7.99805 12.7715H5.75684V9.46094Z" fill="rgba(146, 143, 148, 1)"/>
</svg>
