<svg width="16" height="22" viewBox="0 0 16 22" fill="none" xmlns="http://www.w3.org/2000/svg">
<path d="M15.0693 22H0.450195V19.0996L7.34961 11.7461C8.29688 10.7109 8.99512 9.80762 9.44434 9.03613C9.90332 8.26465 10.1328 7.53223 10.1328 6.83887C10.1328 5.8916 9.89355 5.14941 9.41504 4.6123C8.93652 4.06543 8.25293 3.79199 7.36426 3.79199C6.40723 3.79199 5.65039 4.12402 5.09375 4.78809C4.54688 5.44238 4.27344 6.30664 4.27344 7.38086H0.0253906C0.0253906 6.08203 0.333008 4.89551 0.948242 3.82129C1.57324 2.74707 2.45215 1.90723 3.58496 1.30176C4.71777 0.686523 6.00195 0.378906 7.4375 0.378906C9.63477 0.378906 11.3389 0.90625 12.5498 1.96094C13.7705 3.01562 14.3809 4.50488 14.3809 6.42871C14.3809 7.4834 14.1074 8.55762 13.5605 9.65137C13.0137 10.7451 12.0762 12.0195 10.748 13.4746L5.89941 18.5869H15.0693V22Z" fill="#928F94"/>
</svg>
